<svg xmlns="http://www.w3.org/2000/svg" viewBox="0 0 500 500">
<style type="text/css">
	.st0 {
		fill: #24262B;
	}
	.st1 {
		fill: #FFFFFF;
	}
	@media (prefers-color-scheme: dark) {
		.st0 {
			fill:#efefef;
		}
		.st1 {
			fill:#35383f;
		}
	}
</style>
<path class="st0" d="M500,249.79c0,166.67-83.33,250-250,250S0,416.45,0,249.79s83.33-250,250-250S500,83.12,500,249.79z"/>
<path class="st1" d="M46.18,413.6h0.52c0.69-0.69,1.38-1.73,2.07-3.11c0.35-0.35,1.56-2.07,3.63-5.19c-0.69-1.04-0.86-1.9-0.52-2.59
	c1.04-1.04,1.99-2.51,2.85-4.41c0.86-1.9,1.81-3.37,2.85-4.41c0.35,0,0.52,0.26,0.52,0.78c0,0.52,0.35,0.61,1.04,0.26
	c0.35-0.69,0.26-1.12-0.26-1.3c-0.52-0.17-0.78-0.43-0.78-0.78c2.42-2.42,3.97-4.84,4.67-7.26c1.04-4.15,3.28-8.3,6.74-12.45
	c0-0.34,0.17-0.95,0.52-1.81c0.35-0.86,0.86-1.3,1.56-1.3c1.73,0,3.2-0.78,4.41-2.33c1.21-1.56,2.16-2.68,2.85-3.37
	c1.73-1.38,3.28-3.37,4.67-5.96c1.38-2.59,2.25-4.23,2.59-4.93v-0.26c0-0.17-0.17-0.26-0.52-0.26c-0.35,0-0.86,0.17-1.56,0.52
	c-0.69,0.34-1.38,0.34-2.07,0c0.69,0,1.3-0.61,1.82-1.81c0.52-1.21,1.3-1.82,2.33-1.82h0.52c-0.34-1.38,0.17-3.2,1.56-5.44
	c1.38-2.25,2.07-4.06,2.07-5.44v-1.04c0-1.04,0.61-1.73,1.82-2.07c1.21-0.35,1.99-0.69,2.33-1.04c-2.42,0-3.11-0.52-2.07-1.56
	l5.7-5.7c3.46-3.46,5.53-5.7,6.22-6.74c1.73-2.07,3.8-4.49,6.22-7.26c2.42-2.77,4.15-5.19,5.18-7.26c0.35-0.35,0.69-1.04,1.04-2.07
	c0.35-1.04,0.86-1.73,1.56-2.07c1.73-0.69,2.25-2.07,1.55-4.15c-0.34-1.04,0.17-2.94,1.56-5.7c0.35,0,0.95,0.26,1.82,0.78
	c0.86,0.52,1.64,0.43,2.33-0.26c-1.38-1.04-1.56-2.07-0.52-3.11c1.04-1.04,1.56-1.9,1.56-2.59v-0.52c1.38,1.38,2.25,2.42,2.59,3.11
	l3.11-4.67c1.38-2.07,3.11-3.46,5.19-4.15c-0.35-2.42,0.69-4.32,3.11-5.7c0.35,0,0.86-0.17,1.56-0.52c0.69-0.35,0.86-0.86,0.52-1.56
	c0-0.35-0.09-0.52-0.26-0.52h-0.26c-0.69,0-1.56,0.35-2.59,1.04c0.69-0.69,1.21-1.3,1.56-1.81c0.35-0.52,0.86-0.95,1.56-1.3
	c-0.69-1.73-0.61-3.11,0.26-4.15c0.86-1.04,2.16-1.56,3.89-1.56c0.34,0.69,0.34,1.3,0,1.81c-0.35,0.52-0.69,0.95-1.04,1.3
	c1.38,0.69,2.33,0.6,2.85-0.26l0.78-1.3c0-0.69-0.35-1.47-1.04-2.33c-0.69-0.86-0.69-1.64,0-2.33c0.69-0.34,1.04-0.17,1.04,0.52
	v1.04c2.07-2.07,3.11-4.32,3.11-6.74c0-1.04-0.17-1.9-0.52-2.59c0.69,0,1.04,0.26,1.04,0.78v0.78c0,1.04,0.26,1.64,0.78,1.81
	c0.52,0.17,0.95,0.26,1.3,0.26c0.69,0.34,1.3,0.43,1.81,0.26c0.52-0.17,0.78-0.43,0.78-0.78c0-1.04,0.86-2.33,2.59-3.89
	c1.73-1.56,2.59-3.2,2.59-4.93v-0.52c-0.35-3.8,2.42-6.74,8.3-8.81c-0.35-1.04-0.09-2.07,0.78-3.11c0.86-1.04,1.3-1.9,1.3-2.59
	v-0.52c0.69,0.69,1.04,1.3,1.04,1.81c0,0.52-0.35,1.12-1.04,1.82l0.52,1.04c1.38-0.35,2.24-1.12,2.59-2.33
	c0.35-1.21,0.86-2.16,1.55-2.85c3.46-3.46,5.7-6.05,6.74-7.78l-0.52-1.04c-0.69,0-1.21,0.34-1.56,1.04
	c-0.35,0.69-0.69,1.21-1.04,1.56c0-3.46,0.86-7.26,2.59-11.41c1.38,0.35,1.9,1.04,1.55,2.07c-0.35,1.04-0.52,1.73-0.52,2.07
	c0,0.69,0.17,1.04,0.52,1.04l0.52,1.04c0-0.69,0.43-0.78,1.3-0.26c0.86,0.52,1.46,0.26,1.81-0.78c0-2.42,1.21-3.8,3.63-4.15
	c0.69,0,1.47-0.43,2.33-1.3c0.86-0.86,1.46-1.81,1.82-2.85c1.04-3.11,3.11-5.53,6.22-7.26c1.04,0.69,1.56,1.47,1.56,2.33v1.81
	c0,0.69,0.17,1.21,0.52,1.56c-7.26,2.07-11.06,6.74-11.41,14c-2.07-0.34-3.37,0-3.89,1.04c-0.52,1.04-0.95,2.42-1.3,4.15
	c-0.35,1.73-1.04,2.76-2.07,3.11c0.69,0.35,1.04,0.87,1.04,1.56c0,0.69-0.35,1.38-1.04,2.07c0.35-0.69,0.35-1.3,0-1.81
	c-0.35-0.52-0.86-0.61-1.56-0.26c0.35,1.73,0.09,3.28-0.78,4.67c-0.86,1.38-1.47,2.25-1.81,2.59c0,0.35-0.35,1.21-1.04,2.59
	c-0.69,1.38-1.9,2.07-3.63,2.07h-1.55c0.35,0.69,0.26,1.38-0.26,2.07c-0.52,0.69-0.78,1.38-0.78,2.07l0.52,1.04
	c-1.73,1.04-2.94,2.68-3.63,4.93c-0.69,2.25-1.04,3.71-1.04,4.41l-2.07,1.04c2.07,1.04,3.11,2.25,3.11,3.63
	c0,1.04-0.52,2.07-1.56,3.11c0-1.04-0.35-2.07-1.04-3.11c-2.42,1.04-3.11,2.59-2.07,4.67l-1.56,2.59c-0.35,0-0.61-0.26-0.78-0.78
	c-0.17-0.52-0.6-0.61-1.3-0.26c0,0.35-0.17,1.12-0.52,2.33c-0.35,1.21-0.17,2.33,0.52,3.37c-0.35,0.69-0.69,0.86-1.04,0.52
	c-0.35-0.35-0.69-0.52-1.04-0.52c-0.35,1.73-1.12,3.8-2.33,6.22c-1.21,2.42-1.99,4.49-2.33,6.22c-0.34,1.04-1.9,6.39-4.67,16.07
	c-0.69,2.76-1.21,6.31-1.55,10.63c-0.35,4.32-0.69,7.69-1.04,10.11c0,1.73,0.86,2.94,2.59,3.63c-2.07,0.69-2.68,1.73-1.81,3.11
	c0.86,1.38,1.3,2.25,1.3,2.59c0.35,1.73,1.12,3.8,2.33,6.22s2.16,4.49,2.85,6.22l1.04,1.56c1.73,1.38,5.53,4.41,11.41,9.07
	c5.88,4.67,11.58,8.38,17.11,11.15c1.38,0.69,3.11,2.16,5.18,4.41c2.07,2.25,3.98,3.72,5.7,4.41c2.07,1.04,4.49,2.68,7.26,4.93
	c2.76,2.25,5.36,3.54,7.78,3.89c2.07,0,3.46,0.35,4.15,1.04c1.38,2.07,3.46,3.11,6.22,3.11c1.04,0,2.94-0.34,5.7-1.04
	c-0.35-1.73,0.17-3.63,1.56-5.7c0.69-1.38,1.47-3.11,2.33-5.18s1.64-3.8,2.33-5.18c1.38-2.42,2.07-5.01,2.07-7.78
	c-0.35-3.46,0.69-5.88,3.11-7.26c0.35-0.35,0.35-0.69,0-1.04c-0.34-1.04-0.17-2.07,0.52-3.11c0.69-1.04,1.21-1.9,1.56-2.59
	c0.34-0.35,0.6-0.26,0.78,0.26c0.17,0.52,0.43,0.78,0.78,0.78c0.35-0.69,0.61-1.99,0.78-3.89c0.17-1.9,0.78-3.2,1.82-3.89
	c1.04-0.69,1.81-1.9,2.33-3.63c0.52-1.73,1.12-3.11,1.82-4.15c0.34-0.69,0.34-1.3,0-1.81c-0.35-0.52-1.04-0.78-2.07-0.78
	c1.04-1.04,2.25-2.85,3.63-5.44c1.38-2.59,2.59-4.41,3.63-5.44c-0.69,2.07-1.04,3.63-1.04,4.67c2.07-1.38,3.11-3.46,3.11-6.22
	c-0.69-2.07-0.69-3.63,0-4.67c2.77-2.76,4.67-5.18,5.7-7.26c0.35-0.69,0.35-1.21,0-1.56c-0.35-0.35-0.52-0.69-0.52-1.04
	c0.34-0.34,2.07-2.59,5.18-6.74c1.38-2.76,2.76-4.15,4.15-4.15h0.52c0.69,0,1.21-0.26,1.56-0.78l0.52-0.78
	c-0.69-1.38-0.52-2.42,0.52-3.11c1.04-0.69,1.73-1.21,2.07-1.56c-1.38-0.35-1.9-1.04-1.55-2.07c0.35-1.04,0.35-1.73,0-2.07
	c2.07,1.04,3.8,0.69,5.18-1.04c3.11-5.53,6.4-9.85,9.85-12.96c1.73-1.73,2.59-3.28,2.59-4.67c0-0.34-0.35-1.56-1.04-3.63
	c1.73,0.35,2.25,0.17,1.55-0.52c-0.69-0.69-1.04-1.21-1.04-1.56c0.35,0,0.95-0.09,1.81-0.26c0.86-0.17,1.3-0.95,1.3-2.33
	c-1.73-0.34-2.51-0.95-2.33-1.81c0.17-0.86,0.26-1.47,0.26-1.81c0-0.69-0.17-1.21-0.52-1.56h1.3c0.52,0,0.78,0.17,0.78,0.52
	c0,0.69,0.17,1.21,0.52,1.55c0.34,0,1.12,0.35,2.33,1.04s1.3-0.35,0.26-3.11l2.59-0.52c-1.37-0.34-1.72-0.69-1.04-1.04
	c0.69-0.34,1.04-0.69,1.04-1.04c-0.69,0-0.86-0.52-0.52-1.56l1.04,1.04c1.38,0.35,2.59-0.17,3.63-1.56c1.04-1.38,1.9-2.24,2.59-2.59
	c0,0.69,0.35,1.04,1.04,1.04c-0.35-0.34-0.35-1.12,0-2.33c0.35-1.21,0.17-2.16-0.52-2.85c2.07,0.35,3.11,1.38,3.11,3.11v2.07
	c-1.04-1.73-1.73-2.16-2.07-1.3l-0.52,1.3c-0.69,4.15-1.21,6.4-1.56,6.74c-2.42,3.46-4.67,10.02-6.74,19.7
	c-1.38,6.22-2.07,10.89-2.07,14c0,3.46,0.52,7.09,1.56,10.89c0,0.69,0.09,1.9,0.26,3.63c0.17,1.73,0.78,2.94,1.81,3.63
	c0.69,0.69,1.04,1.56,1.04,2.59c0,3.11,1.21,6.57,3.63,10.37c1.38,1.73,3.2,3.37,5.44,4.93c2.25,1.56,3.89,2.68,4.93,3.37
	c6.22,4.15,11.23,6.74,15.04,7.78c0,0.35,0.26,0.43,0.78,0.26c0.52-0.17,0.78,0.09,0.78,0.78c0.69,0,1.55,0.43,2.59,1.3
	c1.04,0.86,1.9,1.3,2.59,1.3l2.07-1.04c0.35,1.38,1.21,2.07,2.59,2.07c2.07-0.35,6.05,0.34,11.93,2.07c0.69,0.35,1.47,0.78,2.33,1.3
	c0.86,0.52,1.81,0.95,2.85,1.3l8.81,0.52l4.67,0.52c3.11,0,5.7-1.21,7.78-3.63c1.38-0.69,2.42-0.86,3.11-0.52
	c1.38,0.69,2.59,0.52,3.63-0.52c1.38-1.38,2.42-2.07,3.11-2.07c1.73-0.69,3.63-1.73,5.7-3.11c2.07-1.38,3.8-2.25,5.19-2.59
	c0.35-0.35,0.78-0.69,1.3-1.04c0.52-0.34,1.12-0.52,1.81-0.52c3.11-1.04,5.62-2.68,7.52-4.93c1.9-2.25,3.02-3.54,3.37-3.89
	c0.35-0.69,1.04-1.47,2.07-2.33c1.04-0.86,1.56-1.99,1.56-3.37v-1.04c1.04,0,2.16-0.78,3.37-2.33c1.21-1.56,2.51-2.51,3.89-2.85
	c-1.73-0.69-2.25-1.56-1.56-2.59c5.87,0,10.19-2.94,12.96-8.81c0.35-0.34,0.69-1.04,1.04-2.07c0.35-1.04,1.21-1.55,2.59-1.55h0.52
	c1.04,0,1.56-0.69,1.56-2.07c0.35-1.73,1.38-3.46,3.11-5.18c1.71-1.73,2.92-3.11,3.63-4.15c1.04-2.42,3.11-4.49,6.22-6.22
	c0.34-0.34,0.86-0.78,1.55-1.3c0.69-0.52,1.21-1.3,1.56-2.33c0-1.38,0.26-2.07,0.78-2.07c0.52,0,1.12,0.35,1.81,1.04
	c0-0.35,0.17-1.04,0.52-2.07c0.35-1.04,1.21-1.9,2.59-2.59c1.04-0.34,1.64-0.95,1.81-1.81c0.17-0.86-0.09-1.81-0.78-2.85
	c1.73,0,2.51-0.6,2.33-1.81c-0.17-1.21-0.26-1.99-0.26-2.33c1.04,0,1.73,0.34,2.07,1.04c0.35,0.69,0.52,1.21,0.52,1.56
	c0.69-0.35,0.95-1.3,0.78-2.85c-0.17-1.56,0.43-2.51,1.82-2.85c0,1.04,0.35,1.56,1.04,1.56c0.69-1.04,1.47-2.68,2.33-4.93
	c0.86-2.25,2.33-3.72,4.41-4.41c0-2.42,0.52-4.67,1.55-6.74c1.04-2.07,2.25-3.11,3.63-3.11c0.35-1.38-0.17-2.76-1.56-4.15
	c0.35-2.42,1.56-2.42,3.63,0c0-1.73,0.17-2.59,0.52-2.59c3.11-2.07,4.67-4.84,4.67-8.3c0-1.38-0.17-2.59-0.52-3.63
	c0-1.04,0.17-1.56,0.52-1.56c0.69-0.69,1.47-1.81,2.33-3.37c0.41-0.73,0.79-1.39,1.16-2.01c-1-12.77-2.56-24.99-4.7-36.62
	c-3.63,5.4-7.37,11.44-11.24,18.15l-6.22,11.41c-1.38,2.07-2.68,3.98-3.89,5.7s-2.16,3.11-2.85,4.15c-2.42,5.18-4.15,8.3-5.18,9.33
	c0.35-0.34-5.53,6.05-17.63,19.18c-17.63,17.63-29.03,28.69-34.22,33.18c-5.88,5.88-9.51,9.33-10.89,10.37l-10.89,9.33
	c-3.46,3.46-7.26,6.74-11.41,9.85c-10.72,8.3-17.63,13.31-20.74,15.04c-2.77,1.73-5.7,2.59-8.81,2.59h-1.56
	c0.69-1.04,0.78-2.68,0.26-4.93c-0.52-2.25-0.6-3.97-0.26-5.18c0.35-1.21,1.38-2.33,3.11-3.37h-1.04c-0.34,0-0.69-0.34-1.04-1.04
	c-0.35-1.38-0.35-2.94,0-4.67c0.35-1.73,0.52-3.11,0.52-4.15v-2.07l0.26-0.52c0.17-0.34,0.43-0.52,0.78-0.52
	c1.73,0.35,2.59,0.09,2.59-0.78s-0.17-1.47-0.52-1.81c-0.69-0.69-0.78-1.47-0.26-2.33c0.52-0.86,0.78-1.47,0.78-1.81
	c2.76-7.6,5.01-13.13,6.74-16.59c0.69-3.11,1.73-4.67,3.11-4.67H364c0.69-3.11,1.73-5.53,3.11-7.26c0,2.42-1.04,5.01-3.11,7.78
	c0.69,0,1.21,0.17,1.56,0.52l1.04-0.52c0.34-0.34,0.86-1.64,1.55-3.89c0.69-2.25,1.04-3.89,1.04-4.93c-1.04,0-1.56-0.26-1.56-0.78
	c0-0.52,0.17-0.95,0.52-1.3c1.04-2.07,2.16-4.58,3.37-7.52c1.21-2.94,2.33-5.27,3.37-7c3.11-4.49,7.43-11.58,12.96-21.26
	c0.35-0.34,1.04-0.52,2.07-0.52c0.69,0,1.04,0.35,1.04,1.04c0,0.69,0.17,1.21,0.52,1.56l6.74-7.26c0.69-0.69,1.21-1.38,1.56-2.07
	c0.34-0.69,0.34-1.21,0-1.56c-0.69-0.34-0.86-0.95-0.52-1.81c0.35-0.86,0.52-1.46,0.52-1.81c1.38-0.69,2.68-2.07,3.89-4.15
	s2.33-3.46,3.37-4.15c0-0.34,0.09-0.61,0.26-0.78l0.78-0.78c0-1.73,0.69-3.28,2.07-4.67c1.38-1.38,2.77-2.24,4.15-2.59
	c0.35-0.34,0.69-0.52,1.04-0.52s0.69-0.35,1.04-1.04c0.34-2.77,1.9-4.84,4.67-6.22c2.07-1.38,4.84-3.8,8.3-7.26
	c6.22-4.84,8.99-7.08,8.3-6.74c0.35-0.34,0.69-0.78,1.04-1.3c0.35-0.52,0.86-1.12,1.56-1.82c2.42-0.69,4.75-2.68,7-5.96
	c2.23-3.28,3.18-6.31,2.85-9.07c-0.35-1.38-0.86-2.59-1.56-3.63c-0.69-1.04-1.21-2.07-1.56-3.11c-0.33-1.04-1.46-2.16-3.37-3.37
	c-1.89-1.21-3.01-2.33-3.37-3.37c-0.34-0.69-1.72-2.25-4.15-4.67c-1.04-0.69-2.51-1.55-4.41-2.59c-1.9-1.04-3.37-2.25-4.41-3.63
	c-0.69-0.69-1.21-0.78-1.56-0.26c-0.35,0.52-0.52,0.95-0.52,1.3c-0.33-0.69-1.2-1.56-2.59-2.59c-1.38-1.04-2.07-2.07-2.07-3.11
	v-0.52c-0.69,0-1.38,0.34-2.07,1.04c-0.69,0.69-1.21,1.04-1.55,1.04c-0.34-0.69-0.94-1.3-1.82-1.81c-0.85-0.52-1.46-0.95-1.81-1.3
	c-1.73-1.73-2.94-2.59-3.63-2.59l-3.11,1.56c-1.73,1.73-3.72,3.28-5.96,4.67c-2.25,1.38-4.41,3.11-6.48,5.18
	c-4.15,3.11-6.57,5.53-7.26,7.26c0,0.34-0.52,0.6-1.56,0.78c-1.04,0.17-1.55,0.6-1.55,1.3c0,1.38-0.35,2.25-1.04,2.59
	c-0.35-0.34-0.52-0.78-0.52-1.3c0-0.52-0.35-0.78-1.04-0.78c-0.33,0-0.68,0.34-1.04,1.04c-0.35,0.69-0.86,1.21-1.56,1.56
	c0.69,0.34,1.21,0.78,1.56,1.3l0.52,0.78c-1.38,0.68-2.59,1.12-3.63,1.3c-1.04,0.17-1.9,0.26-2.59,0.26
	c-1.73,0.69-3.37,1.82-4.93,3.37l-3.89,3.89c-2.07,1.73-5.19,3.89-9.33,6.48c-4.15,2.59-7.09,5.62-8.81,9.07
	c-2.76,0.69-5.27,2.42-7.52,5.18c-2.25,2.76-4.23,4.84-5.96,6.22c-3.11,2.76-6.57,6.22-10.37,10.37c-3.8,4.15-6.57,7.26-8.3,9.33
	l-19.7,21.78l-12.44,14c-4.15,5.19-8.47,10.03-12.96,14.52c-9.68,11.06-16.59,19.53-20.74,25.41c-1.73,2.42-3.71,4.93-5.96,7.52
	c-2.25,2.59-4.23,5.1-5.96,7.52l-9.85,13.48c-3.8,5.88-6.05,9.16-6.74,9.85c-2.42,2.76-4.67,6.05-6.74,9.85l-8.81,11.41
	c0.35-1.04,0.6-2.33,0.78-3.89c0.17-1.56,0.6-2.85,1.3-3.89c1.04-2.07,1.56-3.46,1.56-4.15c0-1.04-0.35-1.9-1.04-2.59
	c-1.04-1.04-0.69-2.42,1.04-4.15c0-0.34,0.34-0.52,1.04-0.52c-0.69,1.04-0.35,1.9,1.04,2.59c0.35-1.04,0.86-2.42,1.56-4.15
	c0.69-1.73,1.73-2.94,3.11-3.63c1.73-0.69,3.02-1.81,3.89-3.37c0.86-1.56,1.46-2.51,1.82-2.85c1.38-2.42,3.37-5.19,5.96-8.3
	c2.59-3.11,4.23-6.05,4.93-8.81l0.52-1.04c1.04-0.69,1.47-1.3,1.3-1.81c-0.17-0.52-0.78-0.95-1.81-1.3c0.35-0.69,0.86-1.3,1.56-1.81
	c0.69-0.52,0.86-1.12,0.52-1.81c-0.35,0-0.69,0.26-1.04,0.78c-0.35,0.52-0.86,0.6-1.56,0.26c-0.34-0.69,0.09-1.3,1.3-1.81
	c1.21-0.52,1.81-0.95,1.81-1.3l-0.52-1.04c0.35-0.35,1.04-0.35,2.07,0c1.04,0.34,1.9,0.52,2.59,0.52c0-0.34,0.09-0.78,0.26-1.3
	c0.17-0.52,0.6-1.12,1.3-1.81c1.04-1.38,2.16-2.77,3.37-4.15c1.21-1.38,2.33-3.11,3.37-5.18c0.34-1.04,0.94-2.68,1.81-4.93
	c0.86-2.25,1.98-4.06,3.37-5.44c2.42-2.42,4.67-5.62,6.74-9.59c2.07-3.97,3.63-6.83,4.67-8.55c0.35,0.69,1.04,1.04,2.07,1.04
	c-1.04-2.07-0.69-4.06,1.04-5.96c1.73-1.9,2.76-3.37,3.11-4.41c-0.35-0.35-0.69-0.52-1.04-0.52c-0.34,0-0.69-0.17-1.04-0.52
	c2.77-1.04,4.32-1.73,4.67-2.07c1.04-1.38,3.8-6.22,8.3-14.52c0.69-1.04,1.3-2.42,1.82-4.15c0.52-1.73,1.3-2.94,2.33-3.63
	c0.35-0.34,0.95-0.78,1.82-1.3c0.86-0.52,1.3-1.12,1.3-1.81c0-1.04-0.17-1.73-0.52-2.07c-0.35-0.34-0.17-0.78,0.52-1.3
	c0.69-0.52,1.04-0.95,1.04-1.3c0.68,0,1.11,0.26,1.3,0.78c0.17,0.52,0.43,0.78,0.78,0.78c0-0.35,0.17-0.78,0.52-1.3
	c0.34-0.52,0.34-1.12,0-1.81c-1.04,0.69-2.25,0.78-3.63,0.26c-1.38-0.52-2.42-0.95-3.11-1.3l2.07-2.07l0.52-1.56
	c0.34,0,0.69,0.26,1.04,0.78c0.35,0.52,0.69,0.95,1.04,1.3h-2.07c1.04,1.04,2.07,1.56,3.11,1.56c0.35-0.34,0.6-0.95,0.78-1.81
	c0.17-0.86,0.78-1.3,1.81-1.3c1.04,0,1.64,0.34,1.82,1.04c0.17,0.69,0.26,1.21,0.26,1.56c0.69,0,1.56-0.69,2.59-2.07
	c1.04-1.38,2.07-2.24,3.11-2.59c-0.35,0-0.43-0.17-0.26-0.52c0.17-0.34,0.09-0.69-0.26-1.04c-0.34,0-0.69,0.17-1.04,0.52
	c-0.34,0.35-0.69,0.35-1.04,0c0-0.34,0.09-0.78,0.26-1.3c0.17-0.52,0.09-1.3-0.26-2.33c-0.69-1.04-0.52-1.64,0.52-1.81
	c1.04-0.17,1.73-0.26,2.07-0.26c-0.69,2.07-0.86,3.8-0.52,5.19c1.38,0,2.59-1.21,3.63-3.63c-0.35-0.34-0.86-0.52-1.56-0.52
	c-0.69,0-0.86-0.35-0.52-1.04c0.35-0.34,0.86-1.04,1.56-2.07c0.69-1.04,1.56-1.73,2.59-2.07c0.69,0,1.04,0.52,1.04,1.56v1.04
	c0-0.34,0.35-0.43,1.04-0.26c0.69,0.17,1.21-0.09,1.55-0.78c1.38-3.8,3.11-6.05,5.19-6.74c1.38-0.69,2.68-1.99,3.89-3.89
	c1.21-1.9,2.33-3.37,3.37-4.41c1.38-2.07,1.21-3.37-0.52-3.89c-1.73-0.52-2.77-0.95-3.11-1.3c-0.34,0-0.52,0.09-0.52,0.26v-0.78
	c0-0.34,0.09-0.6,0.26-0.78c0.17-0.17,0.09-0.43-0.26-0.78c-0.35,0-1.12,0.26-2.33,0.78c-1.21,0.52-2.16,0.09-2.85-1.3
	c1.04-1.04,1.55-2.16,1.55-3.37c0-1.21-0.52-2.33-1.55-3.37l-3.63-3.63c-1.38-1.38-2.59-2.42-3.63-3.11
	c-2.07-1.38-3.46-3.63-4.15-6.74l-1.04,1.56c0,0.35,0.09,0.69,0.26,1.04c0.17,0.35-0.09,0.52-0.78,0.52
	c-1.04-0.34-1.38-0.69-1.04-1.04l0.52-0.52v-0.26c0-0.17-0.17-0.26-0.52-0.26c-1.73,0-3.28-1.21-4.67-3.63
	c-0.35-1.73-0.86-2.42-1.56-2.07c-0.69,0.34-1.38,0.86-2.07,1.56c-0.34-1.73-1.46-3.37-3.37-4.93c-1.9-1.56-3.72-2.33-5.44-2.33
	c-1.04,0-1.73,0.17-2.07,0.52c-0.35-1.38-1.3-2.59-2.85-3.63s-3.2-1.56-4.93-1.56c-1.04,0-1.9,0.35-2.59,1.04
	c-0.69,0.69-2.25,1.38-4.67,2.07c-2.42,0.69-3.97,2.07-4.67,4.15c-0.35,0.34-0.69,0.43-1.04,0.26l-0.52-0.26
	c-1.38,0.34-2.77,1.21-4.15,2.59l1.04,1.56c-1.73,0-3.28,0.52-4.67,1.56c-1.73,1.04-3.28,2.59-4.67,4.67
	c-0.69,1.38-2.07,2.51-4.15,3.37c-2.07,0.86-3.63,1.47-4.67,1.81c-2.42,1.04-4.15,2.42-5.18,4.15c0,0.34-0.09,0.95-0.26,1.81
	c-0.17,0.86-0.6,1.12-1.3,0.78c-0.35,0-0.78,0.43-1.3,1.3c-0.52,0.86-1.12,0.61-1.82-0.78l-1.04,0.52
	c-1.04,1.38-3.46,3.63-7.26,6.74c-2.42,1.38-4.84,3.28-7.26,5.7l-5.7,5.7c-2.42,1.73-5.01,3.89-7.78,6.48
	c-2.76,2.59-5.18,4.58-7.26,5.96c-0.69,0.34-0.95,0.69-0.78,1.04c0.17,0.35,0.43,0.52,0.78,0.52c-0.35,1.38-1.21,2.25-2.59,2.59
	c-1.38,0.34-2.42,0.86-3.11,1.56c-0.69,0.69-1.73,1.38-3.11,2.07c-1.38,0.69-2.42,1.38-3.11,2.07c-2.07,2.76-5.01,5.53-8.81,8.3
	c-3.8,2.76-6.91,5.36-9.33,7.78c-3.8,3.8-5.7,6.91-5.7,9.33v1.55c0.35,1.04,0.43,2.33,0.26,3.89c-0.17,1.56-0.26,2.68-0.26,3.37
	l-3.11-2.07c0.69,0.34,1.12,0.17,1.3-0.52c0.17-0.69,0.43-1.21,0.78-1.56c0.69-0.69,0.69-2.07,0-4.15c0-0.69-0.26-1.04-0.78-1.04
	h-1.3c-1.04,0-1.73,0.34-2.07,1.04s-0.52,1.21-0.52,1.56c0,2.07-0.69,2.76-2.07,2.07c-0.35-0.34-1.9,0.69-4.67,3.11
	c-2.77,2.42-4.15,3.98-4.15,4.67c0,1.04-0.17,1.73-0.52,2.07c-0.34,0.35-0.69,0.52-1.04,0.52c-1.04,0-1.9,0.34-2.59,1.04l-1.56,1.56
	c-1.04,0.69-2.07,1.9-3.11,3.63c-1.04,1.73-1.9,2.77-2.59,3.11c-1.04,0.69-2.16,1.73-3.37,3.11c-1.21,1.38-2.16,2.42-2.85,3.11
	c-1.04,0.69-3.11,2.94-6.22,6.74c-2.42,3.46-4.32,5.53-5.7,6.22c-1.73,1.04-3.28,2.77-4.67,5.19c-1.04,1.38-2.42,2.76-4.15,4.15
	c-1.73,1.38-3.11,2.59-4.15,3.63c-1.73,1.04-2.42,2.42-2.07,4.15c0.35,0.34,0.35,0.69,0,1.04s-0.69,0.35-1.04,0
	c-0.69-1.04-1.21-1.3-1.56-0.78c-0.35,0.52-0.52,0.95-0.52,1.3c0,0.69-0.52,1.56-1.56,2.59c-4.49,4.15-8.81,8.47-12.96,12.96
	c-5.19,6.22-8.12,9.68-8.81,10.37c-4.15,4.15-8.64,9.85-13.48,17.11c-4.15,5.53-7.43,9.68-9.85,12.44l-6.22,8.81
	c-0.69,1.04-1.9,2.59-3.63,4.67c-1.73,2.07-2.94,3.98-3.63,5.7h-1.04c-0.69,0.69-1.21,0.86-1.56,0.52l0.52-1.04
	c0.35-0.69,0.69-1.81,1.04-3.37s0.86-2.68,1.56-3.37c1.38-2.07,2.77-5.53,4.15-10.37c1.73-4.84,4.15-8.12,7.26-9.85
	c1.73-1.38,2.94-2.94,3.63-4.67c0.69-1.73,1.04-2.76,1.04-3.11c0.35-1.38,0.86-3.37,1.55-5.96c0.69-2.59,1.9-4.58,3.63-5.96
	c1.38-1.38,1.99-2.51,1.82-3.37c-0.17-0.86-0.95-1.99-2.33-3.37c0.35,0.69,0.09,1.47-0.78,2.33c-0.86,0.86-1.3,1.47-1.3,1.81
	l0.52,1.04c0,0.69,0.17,1.04,0.52,1.04h-0.52c-1.04-0.34-1.73-1.12-2.07-2.33c-0.35-1.21-0.69-2.16-1.04-2.85
	c1.73,0,2.85-0.34,3.37-1.04s0.86-1.73,1.04-3.11c0.17-1.38,0.43-2.25,0.78-2.59c1.04,0.34,1.38,1.12,1.04,2.33
	c-0.35,1.21-0.35,1.99,0,2.33c2.42-0.35,4.32-1.73,5.7-4.15c1.38-2.42,2.59-4.15,3.63-5.19c0.35-0.34,0.52-0.78,0.52-1.3
	c0-0.52,0.17-0.78,0.52-0.78c2.42,0.34,3.63-0.69,3.63-3.11v-2.07c0.34-0.69,0.52-2.07,0.52-4.15c-1.04-0.35-1.9-0.09-2.59,0.78
	c-0.69,0.86-1.21,1.47-1.55,1.81c0-0.35-0.35-0.52-1.04-0.52l7.78-15.55l1.04-0.52c-0.69,2.07-0.26,3.37,1.3,3.89
	c1.55,0.52,2.51,0.95,2.85,1.3c0.34,0,0.69-0.17,1.04-0.52c0.35-0.34,0.69-0.34,1.04,0c-0.69,0.69-1.38,1.99-2.07,3.89
	c-0.69,1.9-1.56,3.2-2.59,3.89c0,0.34,0.26,0.6,0.78,0.78c0.52,0.17,0.78,0.6,0.78,1.3c-0.69,0-1.38,0.69-2.07,2.07
	c0.35,0,0.52,0.09,0.52,0.26v0.26c0.35,0,0.69-0.26,1.04-0.78c0.34-0.52,0.69-0.78,1.04-0.78l1.04-0.52
	c0.69-2.07,0.86-3.63,0.52-4.67c1.73,0,2.94-0.17,3.63-0.52l-1.04-2.07c0.35-0.34,0.78-0.52,1.3-0.52c0.52,0,0.78-0.17,0.78-0.52
	c0-2.76,0.86-5.36,2.59-7.78c1.38-2.07,2.07-3.8,2.07-5.18c0-0.69-0.17-1.21-0.52-1.56c-1.04-1.38-1.12-2.51-0.26-3.37l1.81-1.81
	c1.04-2.07,2.59-3.11,4.67-3.11c-1.04-1.04-2.07-1.56-3.11-1.56c-1.04,0-2.16,0.52-3.37,1.56c-1.21,1.04-1.99,1.73-2.33,2.07
	c0.35-1.38,0.52-2.42,0.52-3.11s-0.17-1.73-0.52-3.11l4.15-1.04c1.73-0.34,2.59-1.56,2.59-3.63c0-0.34-0.09-0.95-0.26-1.81
	c-0.17-0.86,0.09-1.64,0.78-2.33c1.38,3.8,2.07,6.22,2.07,7.26l4.15,1.55c4.49-5.53,7.09-10.89,7.78-16.07l2.59,1.56
	c0,0.34-0.26,0.69-0.78,1.04c-0.52,0.35-0.26,1.04,0.78,2.07c2.42-4.84,5.01-8.47,7.78-10.89c0.35,0,0.43,0.17,0.26,0.52l-0.26,0.52
	c1.38-1.38,1.9-2.76,1.56-4.15c-0.35-1.38-0.52-2.42-0.52-3.11v-0.52l1.04,1.04l1.04-1.04c0.35-0.34,0.35-0.69,0-1.04
	c-1.38-1.04-1.99-2.16-1.82-3.37c0.17-1.21,0.26-1.99,0.26-2.33v-1.04h3.63c0,0.34-0.52,0.95-1.56,1.81s-1.56,1.64-1.56,2.33
	l0.52,1.04c0.69-0.69,1.64-1.38,2.85-2.07c1.21-0.69,1.99-1.56,2.33-2.59c-1.73-1.73-2.42-3.11-2.07-4.15
	c-1.04-0.35-1.81-0.09-2.33,0.78c-0.52,0.86-1.12,1.47-1.81,1.81c-0.69-0.69-1.12-1.38-1.3-2.07c-0.17-0.69,0.09-1.56,0.78-2.59
	c0.35,0.69,1.12,1.12,2.33,1.3c1.21,0.17,1.99,0.43,2.33,0.78h1.04c0.34-0.35,0.95-0.78,1.81-1.3c0.86-0.52,1.81-0.43,2.85,0.26
	c0.69,0.69,1.21,0.52,1.55-0.52c0.69-2.07,1.21-3.28,1.56-3.63c1.73-1.73,3.28-3.46,4.67-5.18c1.38-1.73,2.94-3.46,4.67-5.18
	c-0.35-0.69-0.69-0.95-1.04-0.78c-0.34,0.17-0.69,0.26-1.04,0.26c-0.69,0-1.38,0.52-2.07,1.56c-0.35,0.69-1.04,0.52-2.07-0.52
	c0-0.34,0.43-0.94,1.3-1.81c0.86-0.86,0.95-1.64,0.26-2.33c-0.35,0-0.52,0.26-0.52,0.78c0,0.52-0.17,0.78-0.52,0.78
	c-1.04-0.69-1.38-1.55-1.04-2.59c0.35-1.04,0.35-1.73,0-2.07c-0.34,0.69-0.86,0.95-1.55,0.78c-0.69-0.17-1.21-0.26-1.56-0.26
	c1.04-4.49,2.94-6.74,5.7-6.74l2.07,0.52c-2.07,1.38-2.42,2.76-1.04,4.15l2.07-1.04c0.35,1.04,0,1.99-1.04,2.85
	c-1.04,0.86-1.73,1.64-2.07,2.33c2.07,0.34,3.46-0.61,4.15-2.85c0.69-2.25,1.73-3.37,3.11-3.37c-1.04-1.73-1.56-3.11-1.56-4.15
	c0-2.07,1.21-3.63,3.63-4.67c0.34,0,0.95-0.26,1.82-0.78c0.86-0.52,0.6-1.47-0.78-2.85c-0.69,0-1.04,0.52-1.04,1.56l-1.81,1.81
	c-0.86,0.86-1.82,1.3-2.85,1.3h-0.52c0.35,1.73-0.69,3.28-3.11,4.67v-2.59c0-1.38,0.69-2.42,2.07-3.11l3.11-3.63
	c0.69-1.04,1.56-1.9,2.59-2.59c0.35,0,0.52,0.26,0.52,0.78c0,0.52,0.17,0.61,0.52,0.26c0-0.34,0.09-0.6,0.26-0.78
	c0.17-0.17,0.09-0.43-0.26-0.78c-0.34-0.35-0.43-0.69-0.26-1.04c0.17-0.34,0.43-0.52,0.78-0.52c1.73-0.69,2.76-1.3,3.11-1.81
	c0.35-0.52,0.52-1.64,0.52-3.37c1.73-1.04,3.11-1.21,4.15-0.52v3.11c-1.04,0-1.99,0.6-2.85,1.81c-0.86,1.21-1.3,2.51-1.3,3.89v1.04
	c0.35,0,0.86-0.17,1.56-0.52c0.69-0.35,1.21-0.18,1.56,0.52c-0.35,0-0.69,0.26-1.04,0.78c-0.35,0.52-0.35,0.95,0,1.3
	c1.73-0.34,2.94-1.2,3.63-2.59c0.69-1.38,1.38-2.42,2.07-3.11c-1.38-0.34-2.07-0.78-2.07-1.3c0-0.52,0.69-1.81,2.07-3.89
	c-0.35,1.38-0.35,2.94,0,4.67c0.69,0,1.3-0.17,1.82-0.52c0.52-0.34,0.95-0.69,1.3-1.04c0.35-0.35,1.12-1.04,2.33-2.07
	c1.21-1.04,1.82-2.25,1.82-3.63v-1.04c-0.35,0.34-1.04,0.43-2.07,0.26c-1.04-0.17-1.73,0.09-2.07,0.78c0-1.38-0.17-2.24-0.52-2.59
	c-0.35-0.35-0.86-0.43-1.56-0.26c-0.69,0.17-1.38,0.26-2.07,0.26c0.69,2.42,0.17,3.8-1.56,4.15c-1.04-1.73-0.78-3.46,0.78-5.18
	c1.56-1.73,2.33-2.94,2.33-3.63c1.38,0.35,2.07,1.04,2.07,2.07v2.07c1.04-1.73,1.73-3.63,2.07-5.7c0.69,0.69,0.86,1.56,0.52,2.59
	c-0.35,1.04-0.35,1.73,0,2.07c1.73,0,2.59,0.69,2.59,2.07c2.07,0,3.28,0.17,3.63,0.52c0.35,0.35,0.18,1.56-0.52,3.63v1.04l0.52,1.04
	c0.34-0.69,1.2-1.73,2.59-3.11c0.69,0.35,1.38,0.78,2.07,1.3c0.69,0.52,1.38,0.61,2.07,0.26c-0.35-0.69-0.26-1.56,0.26-2.59
	c0.52-1.04,0.78-2.07,0.78-3.11c0-0.34-0.35-1.2-1.04-2.59c0.35,0,0.78,0.17,1.3,0.52c0.52,0.34,0.95,0.34,1.3,0
	c-1.04-1.73-0.95-3.28,0.26-4.67c1.21-1.37,1.81-2.24,1.81-2.59c-0.35-1.04-0.09-1.56,0.78-1.56c0.86,0,1.3-0.17,1.3-0.52
	c-0.35-1.04-0.17-1.55,0.52-1.55c0.69,0,1.21,0.17,1.56,0.52c1.39,1.04,1.22,1.9-0.52,2.59c-1.38,0-1.56,0.52-0.52,1.56
	c0.35,0.35,0.6,0.26,0.78-0.26c0.17-0.52,0.43-0.78,0.78-0.78c0.34,0.34,0.26,0.95-0.26,1.81c-0.52,0.86-0.43,1.64,0.26,2.33
	c1.04-1.04,1.55-2.76,1.55-5.18v-2.59c0-0.35-0.09-0.69-0.26-1.04c-0.17-0.34-0.09-0.69,0.26-1.04c0.69-0.69,1.12-0.78,1.3-0.26
	c0.17,0.52,0.26,0.95,0.26,1.3c0.34,0.35,0.69,0.43,1.04,0.26l0.52-0.26c0.35-0.69,1.04-1.47,2.07-2.33
	c1.04-0.86,1.73-1.64,2.07-2.33c0.34,0,0.95,0.17,1.81,0.52c0.86,0.35,1.46,0.35,1.82,0c-0.35-1.38-1.21-2.76-2.59-4.15
	c-1.38-1.37-2.42-2.24-3.11-2.59l-9.33-9.33c-3.11-2.76-8.81-6.05-17.11-9.85c-2.07-1.04-4.75-2.16-8.04-3.37
	c-3.28-1.21-5.79-2.33-7.52-3.37c-2.07-1.73-5.18-2.59-9.33-2.59c0.35,0.69,0.52,1.38,0.52,2.07c0,0.69-0.17,0.86-0.52,0.52
	c-0.69-0.34-1.38-0.26-2.07,0.26c-0.69,0.52-1.21,0.61-1.56,0.26c-0.35-1.04-1.3-1.73-2.85-2.07c-1.55-0.34-2.68-0.86-3.37-1.56
	c0.35,0.34,0.17,1.2-0.52,2.59c-0.34,0.69-1.21,1.21-2.59,1.56c-1.38,0.35-2.42,0.86-3.11,1.56c-0.69,1.04-1.55,1.9-2.59,2.59
	c-1.38,0.69-3.37,2.33-5.96,4.93c-2.59,2.59-4.75,4.41-6.48,5.44c-0.69,0.34-1.12,1.04-1.3,2.07c-0.17,1.04-0.43,1.73-0.78,2.07
	c-1.38,0.69-2.68,1.9-3.89,3.63c-1.21,1.73-2.33,3.11-3.37,4.15l-2.07,2.07l-2.07,2.07c-0.69,0.69-1.3,1.56-1.81,2.59
	c-0.52,1.04-1.3,1.9-2.33,2.59c-1.38,1.04-2.94,2.94-4.67,5.7c-1.73,2.77-3.28,4.67-4.67,5.7c-1.73,1.38-3.28,3.98-4.67,7.78
	c-0.35,0.69-0.95,1.73-1.82,3.11c-0.86,1.38-1.3,2.59-1.3,3.63v1.55l-3.63-0.52c-0.69,3.46-2.42,5.7-5.18,6.74
	c2.42,0.69,3.11,1.73,2.07,3.11c-0.35,0.34-0.78,0.26-1.3-0.26c-0.52-0.52-0.95-0.78-1.3-0.78c-0.69,0.69-0.52,1.56,0.52,2.59
	c-0.35,0.34-0.95,0.43-1.81,0.26s-1.3,0.26-1.3,1.3c0,1.04-0.52,2.07-1.55,3.11c-1.04,1.04-1.9,2.07-2.59,3.11
	c1.73-0.34,2.59,0,2.59,1.04v2.07c0,0.69-0.69,1.64-2.07,2.85c-1.38,1.21-2.07,2.33-2.07,3.37c-0.35,0-0.52-0.17-0.52-0.52
	c0-0.35-0.17-0.35-0.52,0c-0.35,0.34-0.43,1.12-0.26,2.33c0.17,1.21-0.09,2.16-0.78,2.85c-0.35-0.69-0.35-1.47,0-2.33
	c0.35-0.86,0.52-1.46,0.52-1.81l-0.52-1.04c-0.69,0.69-1.64,1.47-2.85,2.33c-1.21,0.86-1.82,1.64-1.82,2.33
	c0,1.04,0.17,1.73,0.52,2.07h-0.26c-0.17,0-0.26,0.17-0.26,0.52l-1.55,3.11c-0.69,1.38-1.04,2.76-1.04,4.15
	c-0.35,0-0.69-0.17-1.04-0.52c-0.35-0.34-0.69-0.34-1.04,0c0.35,0.35,0.35,0.69,0,1.04c-0.35,0.34-0.52,0.69-0.52,1.04
	c2.07,0,3.02,0.61,2.85,1.81c-0.17,1.21-0.26,1.99-0.26,2.33c0,0.69,0.17,1.21,0.52,1.56c-1.38-0.34-2.16-1.21-2.33-2.59
	c-0.17-1.38-0.43-2.42-0.78-3.11c-0.35,0-0.69,0.34-1.04,1.04c-0.35,0.69-0.86,0.86-1.56,0.52c0-0.34,0.09-0.69,0.26-1.04
	c0.17-0.35,0.09-0.69-0.26-1.04c-0.69,1.04-1.73,2.68-3.11,4.93c-1.38,2.25-2.42,4.58-3.11,7c-1.38,0.34-2.51,1.64-3.37,3.89
	c-0.86,2.25-1.64,3.89-2.33,4.93c-1.38,2.07-2.77,5.27-4.15,9.59c-1.38,4.32-2.59,7.34-3.63,9.07c-0.35,0.34-0.6,0.95-0.78,1.81
	c-0.17,0.86-0.43,1.47-0.78,1.81c-1.38,1.04-2.07,2.42-2.07,4.15s0.34,3.11,1.04,4.15c-1.38-0.34-2.42-0.17-3.11,0.52
	c-0.69,0.69-1.12,1.47-1.3,2.33c-0.17,0.86-0.6,1.81-1.3,2.85c1.73-0.34,2.59,0.52,2.59,2.59h3.63c-0.35,0.35-0.6,1.12-0.78,2.33
	c-0.17,1.21-0.6,1.99-1.3,2.33c-0.69-0.69-1.12-1.3-1.3-1.81c-0.17-0.52-0.26-1.47-0.26-2.85c-1.04-0.34-1.55,0-1.55,1.04
	c0,1.04-0.35,1.55-1.04,1.55c-0.35-0.34-0.52-0.78-0.52-1.3c0-0.52-0.17-0.95-0.52-1.3c-0.35,0-0.69,0.09-1.04,0.26
	c-0.35,0.17-0.35,0.43,0,0.78c0.35,1.04,0.09,1.99-0.78,2.85l-1.81,1.81c-2.42,2.42-3.98,4.49-4.67,6.22
	c-0.69,1.38-1.21,3.46-1.56,6.22c-0.16,1.31-0.45,2.45-0.85,3.45C6.41,340.44,20.12,381.76,42.92,414l1.71,0.64L46.18,413.6z
	 M490.51,196.62c0.35-1.56,0.69-2.68,1.04-3.37c0-0.69,0.35-0.95,1.04-0.78c0.69,0.17,1.21,0.26,1.56,0.26
	c-1.04,1.04-1.56,2.76-1.56,5.18v4.15v1.04c-1.38,0.69-2.16,0.35-2.33-1.04c-0.17-1.38-0.61-2.07-1.3-2.07
	C489.65,199.3,490.17,198.18,490.51,196.62z M357.78,168.37c0.68-0.69,1.89-0.69,3.63,0l-3.63,4.15V168.37z M341.19,190.14
	l-2.07,7.78c-0.35-0.69-0.6-1.64-0.78-2.85c-0.17-1.21-0.6-1.99-1.3-2.33L341.19,190.14z M327.19,199.99c0-1.04,0.52-1.9,1.56-2.59
	c0.69-0.34,1.04-1.2,1.04-2.59c0.35,0,1.04,0.09,2.07,0.26c1.04,0.17,1.9-0.26,2.59-1.3l-3.11,6.74l-1.55,2.07
	c-0.35,0.34-0.86,0.43-1.56,0.26c-0.69-0.17-1.04-0.43-1.04-0.78V199.99z M316.05,214.77c0.52-0.86,1.64-1.82,3.37-2.85
	c0,2.42-1.04,4.67-3.11,6.74C315.61,216.93,315.53,215.63,316.05,214.77z M315.79,223.32c0,0.34-0.35,1.56-1.04,3.63
	c-0.34-1.38-0.6-2.68-0.78-3.89c-0.17-1.21-0.43-2.33-0.78-3.37C314.92,220.73,315.79,221.94,315.79,223.32z M304.9,220.21
	c2.07-1.04,3.63-1.21,4.67-0.52l-4.15,4.67c0-0.34-0.26-1.04-0.78-2.07C304.12,221.25,304.21,220.56,304.9,220.21z M295.83,233.95
	c1.2-1.9,2.15-3.2,2.85-3.89c0,0.69,0.43,1.12,1.3,1.3c0.86,0.17,1.3,0.6,1.3,1.3c-2.07-0.69-3.46-0.09-4.15,1.81
	c-0.69,1.9-1.38,3.03-2.07,3.37c-1.38,1.38-2.59,1.21-3.63-0.52C293.14,236.98,294.61,235.86,295.83,233.95z M288.31,267.14
	c0.69-0.18,1.55-0.09,2.59,0.26c-0.34,2.07-1.72,2.59-4.15,1.56C287.1,267.91,287.62,267.31,288.31,267.14z M304.9,176.66
	c0.69,0,1.47-0.35,2.33-1.04c0.86-0.69,1.64-1.04,2.33-1.04h0.52c0,3.11-1.04,4.67-3.11,4.67l-2.07-0.52
	c-0.35,0-0.52-0.26-0.52-0.78C304.38,177.44,304.55,177.01,304.9,176.66z M260.83,235.77c1.04-0.69,1.56-1.38,1.56-2.07
	c0.69,0.35,0.86,0.95,0.52,1.82c-0.35,0.86-0.17,1.3,0.52,1.3c0,0.35-0.61,0.26-1.82-0.26c-1.2-0.52-1.63,0.26-1.3,2.33
	C259.62,237.5,259.79,236.46,260.83,235.77z M247.35,142.96c0-0.69,0.52-0.86,1.56-0.52c1.04,0.35,1.73,0,2.07-1.04
	c0.35,1.04,0.26,1.9-0.26,2.59c-0.52,0.69-0.78,1.21-0.78,1.56v1.04c-1.04-0.34-1.81-0.86-2.33-1.55
	C247.09,144.34,247,143.65,247.35,142.96z M204.83,218.14c0-0.35-0.26-1.12-0.78-2.33c-0.52-1.21-0.43-2.33,0.26-3.37
	c0.34-0.69,0.95-0.95,1.82-0.78c0.86,0.17,1.46,0.09,1.81-0.26L204.83,218.14z M234.91,176.66c0.35-1.04,0.86-2.51,1.56-4.41
	c0.69-1.9,1.9-3.2,3.63-3.89c-0.34,1.73-1.04,3.8-2.07,6.22c-1.04,2.42-1.56,4.32-1.56,5.7
	C235.77,178.22,235.25,177.01,234.91,176.66z M237.5,261.69h-1.56c-0.69-2.42-0.17-3.8,1.56-4.15c0.69-0.34,0.86-0.95,0.52-1.81
	c-0.35-0.86-0.52-1.46-0.52-1.81c0.69-0.69,1.64-1.3,2.85-1.81c1.21-0.52,1.99-1.12,2.33-1.82c0,0.35,0.09,0.52,0.26,0.52h0.26
	C240.44,255.64,238.53,259.27,237.5,261.69z M243.72,250.28h-0.52c-0.69-1.73,0-2.42,2.07-2.07L243.72,250.28z M230.76,156.18
	c0.69,0.86,1.21,1.12,1.56,0.78c0-2.07,1.56-3.46,4.67-4.15c0.34-1.73,0.69-2.76,1.04-3.11c0.34-0.34,1.2-0.52,2.59-0.52h4.15
	c0,0.35-0.09,0.87-0.26,1.56c-0.17,0.69,0.09,1.38,0.78,2.07c-1.04,0.34-1.9,0.34-2.59,0c-0.69-0.35-1.38-0.35-2.07,0
	c-1.38,1.38-1.04,2.07,1.04,2.07c0.69,0.35,1.04,0.95,1.04,1.82c0,0.86,0.17,1.47,0.52,1.81c-1.04,0.34-1.21,0.86-0.52,1.56
	c0.35,0,0.43,0.17,0.26,0.52c-0.17,0.35-0.43,0.52-0.78,0.52c-0.35,0-0.52-0.17-0.52-0.52c-2.76-1.38-4.67-0.86-5.7,1.56
	c0-0.69-0.26-1.38-0.78-2.07c-0.52-0.69-0.78-1.21-0.78-1.56v-1.04c0-0.34-0.17-0.43-0.52-0.26c-0.35,0.17-0.69,0.43-1.04,0.78
	c-0.69,1.04-1.3,1.38-1.81,1.04c-0.52-0.34-1.3-1.2-2.33-2.59C229.38,155.4,230.07,155.32,230.76,156.18z M226.35,160.85
	c0.52-0.52,1.47-0.78,2.85-0.78c0,1.38,0.69,2.07,2.07,2.07c-0.35,0.68-0.86,1.12-1.55,1.3c-0.69,0.17-1.21,0.26-1.56,0.26
	c1.38,1.04,1.73,2.42,1.04,4.15c0.35,0,0.52,0.09,0.52,0.26v0.26c1.38,0,2.07-0.61,2.07-1.82c0-1.21,0.17-2.16,0.52-2.85l1.56-1.56
	v2.07l0.52,1.04h2.07c-1.73,1.04-2.77,2.59-3.11,4.67c-0.35,2.07-0.69,3.46-1.04,4.15c-0.68-0.34-1.12-1.04-1.3-2.07
	c-0.17-1.04-0.43-1.73-0.78-2.07c-0.69,0.34-0.95,1.04-0.78,2.07c0.17,1.04,0.09,1.73-0.26,2.07c-1.04-0.34-1.64-1.04-1.81-2.07
	c-0.17-1.04-0.43-1.56-0.78-1.56c1.38-1.04,1.64-2.25,0.78-3.63c-0.86-1.38-1.3-2.24-1.3-2.59
	C225.75,162.49,225.83,161.37,226.35,160.85z M224.8,176.4c0.52-0.86,1.81-1.46,3.89-1.81c-0.35,1.38-1.56,2.42-3.63,3.11l1.04,2.07
	l-2.07,0.52C224.02,178.56,224.28,177.27,224.8,176.4z M222.2,281.91c1.21-0.69,1.99-1.38,2.33-2.07l5.7-10.37
	c0.35-0.69,0.86-1.04,1.55-1.04l-0.26-0.78c-0.17-0.52,0.09-0.78,0.78-0.78l1.04,0.52c0,0.34-0.35,0.86-1.04,1.56l-10.37,17.63
	c-0.35,0.34-0.35,0.95,0,1.81c0.35,0.86,0.18,1.64-0.52,2.33c-1.73-1.04-2.68-0.95-2.85,0.26c-0.17,1.21-0.43,2.16-0.78,2.85
	c-0.35-0.69-0.43-2.16-0.26-4.41c0.17-2.25,0.61-3.71,1.3-4.41c0-0.34,0.26-0.43,0.78-0.26c0.52,0.17,0.95,0.09,1.3-0.26
	C220.56,283.47,220.99,282.6,222.2,281.91z M219.87,171.48c0.69,1.38,0.52,2.33-0.52,2.85c-1.04,0.52-1.55,1.12-1.55,1.81v1.04
	C215.38,174.07,216.07,172.17,219.87,171.48z M211.06,176.92c0.69,0.17,1.21,0.26,1.56,0.26l-1.56,4.15l3.63,1.04
	c0.35-0.69,0.43-1.47,0.26-2.33c-0.17-0.86-0.26-1.64-0.26-2.33c1.73,0.69,2.59,1.9,2.59,3.63c0,1.38-0.69,2.59-2.07,3.63
	c-1.04,0.69-1.9,2.25-2.59,4.67c1.38,0.35,2.59-0.34,3.63-2.07c0.35-1.38,1.56-2.07,3.63-2.07c-0.35,0.35-0.86,0.95-1.56,1.81
	c-0.69,0.86-0.35,1.82,1.04,2.85c-0.34,0-1.04,0.09-2.07,0.26c-1.04,0.17-1.21,0.95-0.52,2.33c0.35,0.69,0.09,1.3-0.78,1.81
	c-0.86,0.52-1.47,0.78-1.81,0.78c-1.73,0-2.85,0.61-3.37,1.81c-0.52,1.21-0.95,2.16-1.3,2.85c-1.73-2.42-1.21-4.32,1.55-5.7
	c1.04-0.35,1.56-1.12,1.56-2.33v-2.33c-4.84,0.69-7.6,2.77-8.3,6.22c-1.04-1.04-1.38-1.56-1.04-1.56c0.35-0.69,0.52-1.64,0.52-2.85
	c0-1.21,0.17-2.16,0.52-2.85c0-3.11,1.56-3.63,4.67-1.56c1.38-0.69,2.07-2.59,2.07-5.7c-0.69,0-1.04-0.6-1.04-1.81
	c0-1.21-0.52-1.99-1.56-2.33C209.5,176.83,210.36,176.75,211.06,176.92z M200.95,183.66c0.17-0.52,0.26-0.95,0.26-1.3
	c0.69-1.38,1.55-1.9,2.59-1.55c1.04,0.34,1.9,0.52,2.59,0.52h1.04c-1.04,2.07-2.77,3.11-5.19,3.11h-1.04
	C200.86,184.44,200.77,184.18,200.95,183.66z M199.91,189.36c0.52-1.21,1.12-1.81,1.81-1.81h1.04c0.35,0.69,0.35,1.38,0,2.07
	c-0.34,0.69-0.52,1.38-0.52,2.07v1.04c-1.73,0-2.85-0.09-3.37-0.26c-0.52-0.17-1.12-0.95-1.81-2.33
	C198.44,190.83,199.39,190.57,199.91,189.36z M192.91,194.55c1.38-2.59,2.24-4.23,2.59-4.93c1.04,2.42,1.56,4.15,1.56,5.19
	c0,0.34-0.52,0.52-1.56,0.52c0.35,1.38,0.18,2.76-0.52,4.15c-0.69,1.38-1.73,2.59-3.11,3.63
	C191.18,199.99,191.53,197.14,192.91,194.55z M164.39,215.03c0.69,0.34,1.21,0.34,1.56,0c-1.04-0.69-1.12-1.3-0.26-1.81
	c0.86-0.52,1.3-0.95,1.3-1.3c0,0.35,0.17,0.95,0.52,1.81c0.34,0.86,0,1.64-1.04,2.33c-1.38,1.38-2.59,1.21-3.63-0.52
	C163.18,214.86,163.7,214.68,164.39,215.03z M156.1,249.51c0.69-0.86,1.56-1.12,2.59-0.78c1.04,1.38,0.86,2.77-0.52,4.15
	c-0.35-0.69-0.78-1.12-1.3-1.3c-0.52-0.17-1.12-0.26-1.81-0.26C155.06,250.98,155.41,250.38,156.1,249.51z M148.32,231.1
	c0.69,0.35,0.95,0.86,0.78,1.56c-0.17,0.69-0.26,1.21-0.26,1.56l-3.63-1.56C145.56,231.62,146.59,231.1,148.32,231.1z
	 M122.92,255.99c0-2.07,1.04-3.46,3.11-4.15c1.04,1.04,1.12,2.25,0.26,3.63c-0.86,1.38-1.3,2.42-1.3,3.11
	c0,0.69,0.52,1.56,1.56,2.59c-2.42,0.69-3.63,0.34-3.63-1.04V255.99z M113.32,299.54c0.52-0.69,0.78-1.38,0.78-2.07
	c1.73,0.69,1.9,1.73,0.52,3.11c1.04,0.69,1.38,1.56,1.04,2.59c-0.34,1.04-0.52,1.73-0.52,2.07v0.52l-0.78,0.26
	c-0.52,0.17-0.78-0.09-0.78-0.78c0-0.35,0.26-0.95,0.78-1.82c0.52-0.86,0.43-1.64-0.26-2.33
	C113.06,300.75,112.81,300.23,113.32,299.54z M102.18,316.13c1.04,1.73,0.69,3.46-1.04,5.18l-1.56-1.56L102.18,316.13z
	 M96.47,299.54c1.04,0.34,1.38,1.12,1.04,2.33c-0.35,1.21-0.35,1.99,0,2.33c-1.04,0-1.64-0.26-1.82-0.78
	C95.52,302.91,95.78,301.61,96.47,299.54z M87.66,298.5v-2.85c0-1.21,0.69-1.99,2.07-2.33c0.69,1.04,0.95,2.16,0.78,3.37
	c-0.17,1.21-0.26,2.16-0.26,2.85c0,1.73,0.52,3.11,1.56,4.15c-1.04-0.35-2.07-1.21-3.11-2.59c-1.04-1.38-2.07-2.07-3.11-2.07
	C86.28,297.98,86.97,297.81,87.66,298.5z M84.55,301.1c1.04,1.38,1.55,2.94,1.55,4.67c-1.04,0-1.64-0.34-1.81-1.04
	C84.12,304.03,84.2,302.82,84.55,301.1z M83.51,312.5c0,0.34,0.09,1.21,0.26,2.59c0.17,1.38-0.78,2.42-2.85,3.11
	c-0.35-0.34-0.26-1.12,0.26-2.33c0.52-1.21,0.09-1.99-1.3-2.33C80.57,312.16,81.78,311.81,83.51,312.5z M118.77,197.14
	c0.69-1.9,1.04-3.37,1.04-4.41v-1.04c1.38,0,2.51-0.86,3.37-2.59c0.86-1.73,1.81-2.77,2.85-3.11c2.07,3.46,1.73,6.05-1.04,7.78
	c-0.35,0.35-0.52,0.78-0.52,1.3v1.3c0.35-0.34,0.78-0.86,1.3-1.55c0.52-0.69,1.3-0.87,2.33-0.52c-0.69,0.69-1.12,1.56-1.3,2.59
	c-0.17,1.04-0.78,1.56-1.81,1.56c0,0.34,0.09,0.78,0.26,1.3c0.17,0.52,0.78,0.43,1.81-0.26l1.04-0.52c0,0.69-0.17,1.21-0.52,1.56
	c0.35,1.38-0.09,1.99-1.3,1.82c-1.21-0.17-1.99-0.09-2.33,0.26c1.04-0.69,1.21-1.73,0.52-3.11c-0.69-1.38-0.69-2.42,0-3.11
	c-0.35,0-0.86-0.17-1.56-0.52c-0.69-0.35-1.38-0.35-2.07,0c0.35,1.04,0.26,2.16-0.26,3.37c-0.52,1.21-0.95,2.33-1.3,3.37
	C118.25,200.86,118.08,199.04,118.77,197.14z M111.51,215.03c0.35,1.04-0.17,2.94-1.55,5.7c0-0.34-0.26-1.21-0.78-2.59
	C108.66,216.76,109.44,215.72,111.51,215.03z M94.4,230.58c0.69,0,1.04,0.26,1.04,0.78c0,0.52,0.17,0.78,0.52,0.78
	c1.73,1.04,2.51,1.9,2.33,2.59c-0.17,0.69-1.3,1.9-3.37,3.63c0.35-1.38,0.52-3.28,0.52-5.7C94.05,232.66,93.71,231.96,94.4,230.58z
	 M81.96,251.32c0,1.04,0.26,2.07,0.78,3.11c0.52,1.04,0.78,2.07,0.78,3.11v1.04c-2.42-1.04-3.63-2.42-3.63-4.15
	C79.88,253.4,80.57,252.36,81.96,251.32z M77.03,264.54c0.17-1.21,0.61-1.82,1.3-1.82c1.04,0,1.9,0.35,2.59,1.04
	c0.35,1.73-0.17,2.76-1.56,3.11c-1.38,0.35-2.25,0.52-2.59,0.52C76.77,266.7,76.86,265.75,77.03,264.54z M62.77,281.91
	c1.38,1.38,2.07,2.77,2.07,4.15v1.04c-0.35,0.69-1.3,1.04-2.85,1.04s-2.68,0.17-3.37,0.52C58.28,285.89,59.66,283.64,62.77,281.91z
	 M41.52,214.51c1.38,0,2.42,0.17,3.11,0.52l-5.7,9.85C39.61,219.7,40.48,216.24,41.52,214.51z"/>
</svg>
