<?xml version="1.0" encoding="utf-8"?>
<!-- Generator: Adobe Illustrator 24.1.2, SVG Export Plug-In . SVG Version: 6.00 Build 0)  -->
<svg version="1.1" id="Layer1" xmlns="http://www.w3.org/2000/svg" xmlns:xlink="http://www.w3.org/1999/xlink" x="0px" y="0px"
	 viewBox="0 0 264 88" style="enable-background:new 0 0 264 88;" xml:space="preserve">
<style type="text/css">
	.st0{fill:#FFFFFF;}
</style>
<path class="st0" d="M163,64.9h-13.7l6.3-6.3L154,57l-9,9l9,9l1.6-1.6l-6.3-6.3H163V64.9z"/>
<path class="st0" d="M110,57l-1.6,1.6l6.3,6.3H101v2.3h13.7l-6.3,6.3L110,75l9-9L110,57z"/>
<path d="M31,58.8L29.2,57L22,64.2L14.8,57L13,58.8l7.2,7.2L13,73.2l1.8,1.8l7.2-7.2l7.2,7.2l1.8-1.8L23.8,66L31,58.8z"/>
<path class="st0" d="M15.6,24.6H13V31h6.4v-2.6h-3.9V24.6z M13,19.4h2.6v-3.9h3.9V13H13V19.4z M28.4,28.4h-3.9V31H31v-6.4h-2.6V28.4
	z M24.6,13v2.6h3.9v3.9H31V13H24.6z"/>
<path class="st0" d="M57,27.1h3.9V31h2.6v-6.4H57V27.1z M60.9,16.9H57v2.6h6.4V13h-2.6V16.9z M68.6,31h2.6v-3.9H75v-2.6h-6.4V31z
	 M71.1,16.9V13h-2.6v6.4H75v-2.6H71.1z"/>
<path class="st0" d="M71.4,69.7c-0.7,0-1.3,0.3-1.8,0.7l-6.4-3.8c0-0.2,0.1-0.4,0.1-0.6c0-0.2,0-0.4-0.1-0.6l6.4-3.7
	c0.5,0.5,1.1,0.7,1.8,0.7c1.5,0,2.7-1.2,2.7-2.7S72.9,57,71.4,57s-2.7,1.2-2.7,2.7c0,0.2,0,0.4,0.1,0.6l-6.4,3.7
	c-0.5-0.5-1.1-0.7-1.8-0.7c-1.5,0-2.7,1.2-2.7,2.7s1.2,2.7,2.7,2.7c0.7,0,1.4-0.3,1.8-0.7l6.4,3.8c0,0.2-0.1,0.4-0.1,0.6
	c0,1.5,1.2,2.6,2.6,2.6c1.5,0,2.6-1.2,2.6-2.6C74.1,70.9,72.9,69.7,71.4,69.7z"/>
<path class="st0" d="M113.9,24.3h-0.8l-0.3-0.3c1-1.2,1.6-2.7,1.6-4.4c0-3.7-3-6.7-6.7-6.7s-6.7,3-6.7,6.7s3,6.7,6.7,6.7
	c1.7,0,3.2-0.6,4.4-1.6l0.3,0.3v0.8l5.1,5.1l1.5-1.5L113.9,24.3z M107.7,24.3c-2.6,0-4.6-2.1-4.6-4.6s2.1-4.6,4.6-4.6
	s4.6,2.1,4.6,4.6S110.3,24.3,107.7,24.3z M110.3,20.2h-2.1v2.1h-1v-2.1h-2.1v-1h2.1v-2.1h1v2.1h2.1V20.2z"/>
<path class="st0" d="M157.9,24.3h-0.8l-0.3-0.3c1-1.2,1.6-2.7,1.6-4.4c0-3.7-3-6.7-6.7-6.7c-3.7,0-6.7,3-6.7,6.7s3,6.7,6.7,6.7
	c1.7,0,3.2-0.6,4.4-1.6l0.3,0.3v0.8l5.1,5.1l1.5-1.5L157.9,24.3z M151.7,24.3c-2.6,0-4.6-2.1-4.6-4.6s2.1-4.6,4.6-4.6
	c2.6,0,4.6,2.1,4.6,4.6S154.3,24.3,151.7,24.3z M149.1,19.1h5.1v1h-5.1V19.1z"/>
</svg>
